<?xml version="1.0" encoding="UTF-8"?>
<svg version="1.1" xmlns="http://www.w3.org/2000/svg" width="512" height="512">
<path d="M0 0 C1.70291268 -0.00576172 1.70291268 -0.00576172 3.44022763 -0.01163983 C4.6827183 -0.01077335 5.92520897 -0.00990687 7.20535088 -0.00901413 C8.54238752 -0.01159894 9.87942339 -0.01461242 11.2164582 -0.01801753 C14.88944008 -0.02607732 18.56240241 -0.02787653 22.23539209 -0.028615 C26.1973838 -0.03046735 30.15936539 -0.03801565 34.12135124 -0.04475021 C42.78473919 -0.05832723 51.44812252 -0.06435739 60.11151934 -0.06876087 C65.5226994 -0.0715246 70.93387768 -0.07576222 76.34505653 -0.08026505 C91.33162957 -0.09245734 106.31820117 -0.10275644 121.30477905 -0.10614014 C122.26380992 -0.1063597 123.22284079 -0.10657927 124.2109332 -0.10680549 C125.17224074 -0.10702377 126.13354829 -0.10724204 127.12398636 -0.10746694 C129.07191475 -0.1079104 131.01984314 -0.10835696 132.96777153 -0.10880661 C133.93400841 -0.10902804 134.90024529 -0.10924947 135.89576207 -0.10947761 C151.54672832 -0.11342429 167.19764797 -0.13087453 182.84859623 -0.15416613 C198.92323589 -0.17789483 214.99785219 -0.19034269 231.07250965 -0.19150805 C240.09535311 -0.19242401 249.11813588 -0.19815619 258.1409626 -0.21632767 C265.82535565 -0.23174921 273.50966924 -0.23683704 281.19407482 -0.22858956 C285.11239779 -0.2246902 289.03056083 -0.22557757 292.94886398 -0.23964691 C296.54162096 -0.25242893 300.13409856 -0.25115095 303.72685538 -0.2390562 C305.6302467 -0.23618872 307.53364304 -0.24800238 309.43699563 -0.26047826 C324.96441553 -0.17157274 338.75221658 4.81880814 350.08593559 15.64314651 C362.77756444 29.65452879 365.6781595 44.8048509 365.53515434 63.10799026 C365.53141559 64.52859166 365.5285727 65.94919566 365.5265789 67.36980057 C365.51901024 71.07528918 365.49942154 74.78061637 365.47717094 78.48604202 C365.45656511 82.28057549 365.44754595 86.07513551 365.43749809 89.86970901 C365.4161679 97.29035484 365.38211577 104.71086852 365.33984184 112.13142776 C366.60989067 112.11571732 367.8799395 112.10000687 369.18847466 112.08382034 C373.95208066 112.02905021 378.71565949 111.99490819 383.47949028 111.96663284 C385.53162141 111.95165261 387.58372111 111.9312613 389.63574028 111.90510941 C408.81318693 111.66702523 424.58161321 113.01825796 439.08593559 126.81892776 C448.51020646 136.48819701 453.49018161 147.88785093 453.48701286 161.39021683 C453.49068955 162.23046308 453.49436624 163.07070932 453.49815434 163.93641758 C453.50918178 166.75663549 453.51303348 169.57681653 453.5168438 172.39705276 C453.52310929 174.41755668 453.52975617 176.43805944 453.53675652 178.45856094 C453.55779379 185.0995084 453.56816043 191.74045606 453.57812309 198.38142776 C453.58217115 200.66940193 453.58628808 202.95737597 453.59047318 205.24534988 C453.60952621 215.99776138 453.62375551 226.75016601 453.63208514 237.50259113 C453.6418503 249.90270284 453.66815063 262.30263569 453.70858604 274.7026844 C453.73878419 284.29353293 453.75355764 293.88433031 453.75686616 303.47522545 C453.75921293 309.20002172 453.76812467 314.92462695 453.79332733 320.6493721 C453.81667686 326.04041095 453.82081356 331.43113392 453.81056595 336.82221031 C453.81007211 338.79417918 453.81634745 340.76616397 453.83012199 342.73808479 C453.94610283 360.33515301 450.95110326 374.09477865 438.58984184 387.44392776 C429.32312524 396.20779928 416.48670347 401.27531978 403.79345512 401.24495316 C402.73280846 401.24487762 401.67216179 401.24480209 400.57937431 401.24472427 C399.45103172 401.23956299 398.32268913 401.2344017 397.16015434 401.22908401 C395.4083033 401.22696159 395.4083033 401.22696159 393.62106133 401.2247963 C389.9022951 401.21921275 386.18358977 401.2066632 382.46484184 401.19392776 C379.93880105 401.18891064 377.41275931 401.1843481 374.88671684 401.18025589 C368.70440451 401.1692487 362.52212753 401.1525269 356.33984184 401.13142776 C356.34872429 401.89262421 356.35760674 402.65382065 356.36675835 403.43808365 C356.44710015 410.63206175 356.507905 417.82582053 356.54709053 425.02013111 C356.56791399 428.71831428 356.59613408 432.41612495 356.64159966 436.11409378 C356.68524695 439.686767 356.70901833 443.25908325 356.71935081 446.83200264 C356.72670858 448.19111559 356.74107656 449.55021029 356.76276207 450.90917015 C356.96607812 464.18533134 356.96607812 464.18533134 352.33984184 470.13142776 C348.40371741 472.94739031 343.9942254 472.74384665 339.33984184 472.13142776 C333.71740453 469.67161144 330.64072832 464.99668995 326.89452934 460.26033401 C324.20118434 456.8994894 321.28810031 453.76834869 318.33984184 450.63142776 C313.88021529 445.87141186 309.70179571 440.96666505 305.61718559 435.87752151 C303.12157401 432.86823345 300.5021239 429.99210655 297.83984184 427.13142776 C293.56454956 422.53532148 289.52505289 417.80425104 285.60546684 412.89705276 C284.85781059 411.98439651 284.11015434 411.07174026 283.33984184 410.13142776 C282.89632472 409.47585042 282.4528076 408.82027308 281.99585056 408.14482975 C279.62217742 404.93224121 277.74190817 402.54015659 273.82015228 401.39689064 C270.76091344 401.12861944 267.79035706 401.11032726 264.7199688 401.17903519 C262.99170609 401.16988083 262.99170609 401.16988083 261.22852898 401.16054153 C257.42740123 401.14914643 253.62898439 401.19339223 249.82812309 401.23689651 C247.17635434 401.23699519 244.52482271 401.23366819 241.87309074 401.2254982 C235.60450696 401.21285421 229.33673821 401.23820873 223.06829947 401.27951843 C211.86836009 401.35234723 200.66831423 401.3653345 189.46816605 401.35736352 C184.91707101 401.35592985 180.36668953 401.38352558 175.81574821 401.41858292 C173.41272947 401.42522877 171.00970918 401.43134446 168.60668755 401.43684769 C167.53873955 401.45085114 166.47079155 401.46485458 165.37048149 401.47928238 C149.71639887 401.46423239 136.93006927 396.30445197 125.56249809 385.54939651 C116.09977007 375.25514582 112.29222208 362.54991333 112.02343559 348.89314651 C112.0026545 348.01237946 111.9818734 347.1316124 111.96046257 346.22415543 C111.89530248 343.42248897 111.83623863 340.62073219 111.77734184 337.81892776 C111.7341247 335.91462171 111.6905094 334.01032465 111.64648247 332.10603714 C111.53965561 327.44792558 111.43829444 322.78972354 111.33984184 318.13142776 C109.76140549 319.85390898 108.18497825 321.57823139 106.60937309 323.30330276 C105.73127983 324.26333206 104.85318657 325.22336136 103.94848442 326.21248245 C100.78106602 329.75667097 97.79836157 333.42683191 94.81249809 337.12361526 C91.92303909 340.63843901 88.95305491 344.07556492 85.96484184 347.50642776 C81.8696741 352.20874864 77.79691069 356.92677031 73.77734184 361.69392776 C69.830662 366.37058736 65.87565487 371.03985742 61.90234184 375.69392776 C61.40597221 376.27795364 60.90960258 376.86197952 60.39819145 377.46370316 C53.24396663 385.83005284 53.24396663 385.83005284 49.33984184 387.13142776 C44.03398808 387.47374091 40.60188356 387.66283376 36.33984184 384.13142776 C33.45828012 380.19842767 32.97109933 377.43222517 32.99926567 372.59700394 C32.99949226 371.29603271 32.99971886 369.99506149 32.99995232 368.6546669 C33.01527001 367.24457323 33.03091796 365.83448312 33.04687309 364.42439651 C33.05247245 362.97423111 33.05674095 361.52406 33.05973625 360.07388687 C33.07115837 356.26795497 33.10060239 352.46236974 33.13384819 348.65657425 C33.16460619 344.76868249 33.17825379 340.8807344 33.19335747 336.99275589 C33.22547504 329.37215561 33.27663897 321.75184037 33.33984184 314.13142776 C32.2818438 314.14713821 31.22384575 314.16284866 30.13378716 314.17903519 C26.15290969 314.23394286 22.17206461 314.2679956 18.19091606 314.29622269 C16.47829342 314.31117237 14.76570813 314.33153963 13.05322075 314.35774612 C-5.6940202 314.63714685 -21.45245136 311.70684203 -35.56445503 298.44417191 C-44.70688663 289.38565782 -50.72915367 276.68658776 -50.81254995 263.76991004 C-50.81304771 262.91243888 -50.81354546 262.05496773 -50.8140583 261.1715126 C-50.81844056 260.25579556 -50.82282281 259.34007851 -50.82733786 258.39661247 C-50.84071752 255.32082941 -50.84690299 252.24507501 -50.85302925 249.16926956 C-50.86093116 246.96644334 -50.86920017 244.7636184 -50.87780952 242.56079483 C-50.90402942 235.31742463 -50.91934175 228.07404867 -50.93359566 220.83064651 C-50.93895622 218.33471867 -50.94433373 215.83879086 -50.94972801 213.34286308 C-50.97136078 202.95520152 -50.99024571 192.56754059 -51.0013504 182.17986202 C-51.00427981 179.48525043 -51.0072415 176.79063887 -51.01025581 174.09602737 C-51.01100186 173.4263451 -51.01174791 172.75666282 -51.01251657 172.06668714 C-51.02514684 161.23909588 -51.05833909 150.41166971 -51.10005765 139.58415546 C-51.1426034 128.44994896 -51.16565347 117.31581085 -51.17127097 106.18152171 C-51.17491563 99.93736064 -51.18684231 93.69347916 -51.2193737 87.44939613 C-51.24958173 81.56666741 -51.25572066 75.68438556 -51.24398994 69.80159569 C-51.24377024 67.65188679 -51.25198864 65.5021564 -51.26964378 63.35251999 C-51.41991135 43.98938782 -48.49867165 29.49571842 -34.84765816 14.88142776 C-25.55235793 5.99805799 -12.93060643 0.01645679 0 0 Z M-17.66015816 33.13142776 C-25.0497083 42.98416129 -26.81842092 51.66906233 -26.79387093 63.76407242 C-26.79613648 64.59619127 -26.79840204 65.42831013 -26.80073625 66.28564471 C-26.80703069 69.05432182 -26.80624983 71.8229494 -26.80542183 74.59163284 C-26.80841615 76.58479246 -26.81181931 78.57795149 -26.81559944 80.57110977 C-26.82441554 85.97203193 -26.82677654 91.37293823 -26.82741523 96.77386689 C-26.82812706 100.15166338 -26.83026389 103.52945587 -26.83291245 106.90725136 C-26.84215777 118.70113632 -26.84624833 130.49501 -26.84546089 142.28889847 C-26.84486023 153.2667546 -26.8554119 164.24456156 -26.87120456 175.22240525 C-26.88429739 184.6613039 -26.88964406 194.1001865 -26.88900548 203.53909415 C-26.88875102 209.17039736 -26.89157367 214.80165685 -26.90218353 220.43295097 C-26.91189393 225.73122665 -26.91192355 231.02941709 -26.9046669 236.32769585 C-26.90362473 238.26621501 -26.90596198 240.20473956 -26.91202736 242.14324951 C-27.21846126 263.12923507 -27.21846126 263.12923507 -17.06250191 280.88142776 C-9.24129878 288.27736453 -0.09860856 289.71647888 10.29687309 289.63533401 C11.40286354 289.64475525 12.50885399 289.65417648 13.6483593 289.66388321 C17.14987939 289.69235161 20.65071579 289.69561669 24.15234184 289.69392776 C27.67171966 289.69753788 31.19060756 289.70705675 34.70988274 289.73468399 C36.8912262 289.75145105 39.07273173 289.75436498 41.25410271 289.74167252 C50.65815938 289.80716378 50.65815938 289.80716378 54.33984184 293.13142776 C58.12847959 297.56319365 57.81182785 302.2551773 57.85156059 307.80720901 C57.8695118 308.73236816 57.887463 309.65752731 57.90595818 310.61072159 C57.95998263 313.5550778 57.99393175 316.49927261 58.02734184 319.44392776 C58.06052185 321.44460122 58.09501214 323.44525341 58.13085747 325.44588089 C58.21570469 330.3409466 58.2825535 335.23596509 58.33984184 340.13142776 C61.06017125 337.43802947 63.75089256 334.75490471 66.24999809 331.85408401 C66.75885551 331.26530472 67.26771294 330.67652542 67.79199028 330.06990433 C68.5891143 329.14129593 68.5891143 329.14129593 69.40234184 328.19392776 C69.96598442 327.54005081 70.529627 326.88617386 71.11034966 326.21248245 C72.2797396 324.8550499 73.44819181 323.49680896 74.61572075 322.13777542 C76.25423046 320.23105313 77.8962054 318.3273747 79.53906059 316.42439651 C84.91573341 310.18455895 90.20277487 303.90443367 95.30468559 297.43611526 C97.94963566 294.44087431 100.75108781 291.92580478 104.33984184 290.13142776 C107.07377305 290.03214251 109.78243593 289.99420014 112.51670647 290.00012589 C113.37228364 289.99801017 114.22786081 289.99589446 115.10936457 289.99371463 C117.99341327 289.98769479 120.87741846 289.98871621 123.7614727 289.98958206 C125.82271207 289.98655175 127.88395076 289.98303065 129.94518852 289.9790535 C134.39393438 289.97115216 138.84267217 289.96601485 143.2914238 289.96276283 C150.33066455 289.95685954 157.36985455 289.94032405 164.40907097 289.92142105 C166.81820008 289.91508314 169.22732922 289.90875753 171.6364584 289.90244389 C173.44662321 289.89769517 173.44662321 289.89769517 175.29335701 289.89285052 C191.68587733 289.85077179 208.07837467 289.81781682 224.47094536 289.80550003 C235.5207779 289.79711216 246.57048549 289.774591 257.62025553 289.73614436 C263.46742145 289.71640171 269.31440064 289.70397309 275.16160202 289.70897865 C280.66838933 289.71363496 286.1748234 289.69976562 291.68153954 289.67196655 C293.69744329 289.6650703 295.7133837 289.66491126 297.72928619 289.67216682 C316.19661599 289.83587025 316.19661599 289.83587025 331.84374809 280.83064651 C338.62944236 273.12365694 340.64593449 265.28656314 340.60726738 255.23939896 C340.61406405 253.93124902 340.61406405 253.93124902 340.62099802 252.59667182 C340.63361573 249.68665314 340.63202335 246.77682226 340.63036919 243.86677933 C340.6363561 241.7752445 340.64316203 239.68371188 340.65072441 237.59218216 C340.6683757 231.91847348 340.67307945 226.24482514 340.67435598 220.57109165 C340.67577872 217.02360852 340.68005066 213.47614068 340.68535042 209.92866135 C340.70384835 197.54474287 340.71202139 185.16086741 340.71044731 172.77693558 C340.70924623 161.2463424 340.7303428 149.71593651 340.76193464 138.18539071 C340.78811622 128.27517197 340.7988138 118.36501432 340.79753649 108.45476127 C340.79702738 102.54058353 340.80268245 96.62657224 340.82389259 90.71242905 C340.84330634 85.14733753 340.8433778 79.5825707 340.82885933 74.0174675 C340.82677399 71.98057962 340.83145563 69.94367125 340.84358025 67.90681839 C340.91663336 54.77905598 340.95139878 42.94207589 331.33984184 32.85408401 C325.19386268 27.56037931 318.94972362 25.01218306 310.89364243 24.99720669 C309.22414183 24.99051992 309.22414183 24.99051992 307.52091396 24.98369807 C305.68680404 24.98397461 305.68680404 24.98397461 303.8156414 24.98425674 C302.51662616 24.98058006 301.21761091 24.97690337 299.87923157 24.97311527 C296.27047151 24.96310313 292.66172808 24.95937974 289.0529561 24.95672596 C285.16185774 24.95282057 281.27077251 24.94324239 277.37968254 24.93451309 C267.98114908 24.91475531 258.58261456 24.90468334 249.18406552 24.8957853 C244.75726227 24.89140128 240.33046022 24.88603476 235.90365791 24.88079643 C221.18648527 24.86378484 206.46931338 24.84929087 191.75213242 24.84204769 C187.93338711 24.84013782 184.11464181 24.83821749 180.29589653 24.83626175 C179.34677553 24.83577801 178.39765453 24.83529427 177.41977228 24.83479587 C162.04611179 24.82649632 146.67252913 24.80116037 131.29890262 24.76868107 C115.51245289 24.73560173 99.72604271 24.71759814 83.93955815 24.71440345 C75.07711659 24.71223917 66.21478852 24.70350244 57.35238075 24.67794228 C49.80442919 24.65622333 42.25661869 24.64819073 34.70863943 24.65790906 C30.85925596 24.66245032 27.01016347 24.66057795 23.16082001 24.64114761 C18.98232393 24.62023848 14.80447167 24.6305122 10.62594414 24.64368057 C9.41658852 24.63271133 8.20723291 24.62174208 6.96123016 24.61044043 C-2.16792312 24.67984769 -11.04796316 26.33556069 -17.66015816 33.13142776 Z M365.33984184 137.13142776 C365.33625931 138.11208269 365.33625931 138.11208269 365.33260441 139.11254883 C365.27331296 155.06455117 365.19767329 171.01638124 365.10412693 186.96821594 C365.05927638 194.68259942 365.01983736 202.39693784 364.9934063 210.11140823 C364.97033877 216.8400631 364.93684417 223.56857407 364.89114028 230.29711461 C364.86732525 233.855562 364.84852015 237.41386794 364.84222794 240.97239304 C364.83498501 244.9575748 364.80444942 248.94226811 364.77221489 252.9273262 C364.77364998 254.09042816 364.77508507 255.25353012 364.77656364 256.45187759 C364.59465561 272.43896351 359.78810118 286.31553263 348.62109184 297.94783401 C334.33485843 311.62249921 318.6306794 313.42742837 299.68115044 313.45027542 C297.90629437 313.45958649 296.13144264 313.4697569 294.35659599 313.48071671 C289.56396174 313.50789789 284.77135668 313.52313071 279.97866583 313.53614473 C274.96048434 313.55182751 269.94236202 313.57860122 264.92422295 313.60417557 C255.43309909 313.65087249 245.94196399 313.68766047 236.45078433 313.72084844 C225.64056422 313.75913418 214.83040368 313.80852737 204.02023387 313.8588326 C181.79348057 313.96201725 159.56668952 314.05132127 137.33984184 314.13142776 C137.26532246 319.82394468 137.21106572 325.51617352 137.17504692 331.20906448 C137.16002109 333.14303412 137.13959458 335.07697002 137.11352348 337.0108223 C137.07686593 339.80110913 137.06005316 342.59094288 137.04687309 345.38142776 C137.03138924 346.23696243 137.01590538 347.0924971 136.99995232 347.97395706 C136.99756716 356.60800152 139.46102592 362.98704389 145.36718559 369.36970901 C150.50141652 373.95493307 156.64909569 376.25345259 163.48164177 376.26272964 C164.54569237 376.26673782 165.60974297 376.270746 166.70603752 376.27487564 C167.87336922 376.27434692 169.04070091 376.27381821 170.2434063 376.27327347 C171.47291008 376.27674789 172.70241386 376.28022232 173.96917534 376.28380203 C176.64397338 376.29116351 179.31872165 376.29683459 181.99352264 376.3000927 C186.22547415 376.30600687 190.45734173 376.32255138 194.68925285 376.34143448 C196.13864798 376.3477718 197.58804316 376.35409743 199.03743839 376.36041164 C199.76328927 376.36357746 200.48914016 376.36674327 201.23698652 376.37000501 C211.08855818 376.41206405 220.94009067 376.44505324 230.79174614 376.4573555 C237.43798027 376.46574023 244.08400647 376.48824581 250.73013657 376.52671117 C254.24593332 376.54645796 257.76141934 376.55888111 261.27727509 376.55387688 C265.20108521 376.54835996 269.1243709 376.57365258 273.0480938 376.60139847 C274.2093528 376.59479706 275.3706118 376.58819565 276.56706047 376.5813942 C284.63064992 376.67513133 288.02716489 377.88194974 293.79687309 383.54158401 C294.57417778 384.41685745 295.35148247 385.29213089 296.15234184 386.19392776 C297.44978325 387.65379105 297.44978325 387.65379105 298.77343559 389.14314651 C301.90001611 392.78368547 304.91068293 396.5087014 307.92187309 400.24470901 C311.12786476 404.07221764 314.52835599 407.69708678 317.94408989 411.33675003 C321.8391523 415.51465545 325.43382257 419.86872358 328.91406059 424.40095901 C329.38456841 424.9720137 329.85507622 425.54306839 330.33984184 426.13142776 C330.66984184 426.13142776 330.99984184 426.13142776 331.33984184 426.13142776 C331.35442436 424.91560013 331.36900688 423.69977249 331.3840313 422.44710159 C331.44209283 417.92743699 331.51932544 413.40826649 331.60229301 408.88899612 C331.63550538 406.93465074 331.6635488 404.98021029 331.68627739 403.02571487 C331.71989117 400.21288495 331.77221038 397.4009233 331.82812309 394.58845901 C331.83451302 393.71744049 331.84090294 392.84642197 331.8474865 391.94900894 C331.96109148 387.24005185 332.16638688 383.86795015 335.33984184 380.13142776 C339.27895986 377.25407443 342.06042093 376.75848098 346.89916801 376.76253128 C348.20790382 376.75564789 349.51663963 376.7487645 350.8650341 376.74167252 C351.55999174 376.74485048 352.25494938 376.74802845 352.97096634 376.75130272 C355.16293204 376.76045985 357.35405062 376.7501354 359.54597282 376.73468399 C365.77550817 376.69472659 372.00497497 376.69337025 378.23461723 376.69563675 C382.0531272 376.6956882 385.87118257 376.67634564 389.68956757 376.64630318 C391.83333007 376.63558148 393.9761849 376.64754849 396.11991692 376.66012955 C405.77983258 376.63544477 413.85396978 375.535879 421.21484184 368.88142776 C428.38483023 360.96738398 429.49668375 352.71846078 429.47355461 342.25769424 C429.47582017 341.49514464 429.47808572 340.73259503 429.48041993 339.94693786 C429.48671831 337.4077515 429.48593326 334.86861909 429.48510551 332.32942581 C429.4880996 330.50227668 429.49150271 328.67512818 429.49528313 326.8479805 C429.50410186 321.89539879 429.50646035 316.94283438 429.50709891 311.99024558 C429.50781062 308.8930409 429.50994722 305.7958406 429.51259613 302.69863701 C429.52184248 291.88497133 429.5259319 281.07131797 429.52514458 270.25764847 C429.52454396 260.1914912 429.53509453 250.12538756 429.55088824 240.05924386 C429.56398075 231.40508768 429.56932776 222.75094899 429.56868917 214.09678298 C429.56843469 208.93330582 429.57125836 203.76987633 429.58186722 198.60640907 C429.59157702 193.74808312 429.59160765 188.88985015 429.58435059 184.03152084 C429.58330833 182.25383811 429.58564621 180.47614949 429.59171104 178.69847679 C429.75409362 159.44468333 429.75409362 159.44468333 419.89452934 143.63142776 C413.2359545 137.51863775 405.95893108 136.68690717 397.37109184 136.83845901 C396.45017754 136.84270386 395.52926323 136.8469487 394.58044243 136.85132217 C391.6665994 136.86798712 388.75347245 136.90561588 385.83984184 136.94392776 C383.85287273 136.95899038 381.86589268 136.97267601 379.87890434 136.98494339 C375.03227827 137.0178506 370.18618107 137.06954745 365.33984184 137.13142776 Z " fill="#000000" transform="translate(54.66015815734863,19.868572235107422)"/>
<path d="M0 0 C4.50007979 3.85721125 8.1815268 7.98230275 8.99609375 13.984375 C9.15200507 21.06458331 8.58916404 25.98165924 3.625 31.25 C-0.75105814 35.47124476 -4.84179034 36.6096505 -10.875 36.875 C-16.84002356 36.5988415 -21.18864739 35.6634425 -25.375 31.25 C-29.43075524 25.45464386 -31.29603864 20.27291964 -30.375 13.25 C-28.34572472 7.26363793 -25.91677919 2.73270453 -20.375 -0.5 C-13.42837406 -3.39442748 -6.78933246 -3.52039461 0 0 Z " fill="#000000" transform="translate(222.375,159.75)"/>
<path d="M0 0 C5.28141227 4.38803905 7.25456155 9.25242827 7.9453125 15.9296875 C7.82972702 22.1135107 5.14066063 27.5949101 0.9140625 32.05078125 C-4.05655636 35.76821442 -9.23346526 36.04216027 -15.30078125 35.7890625 C-21.54777358 34.82198753 -25.04627456 32.07829383 -28.8671875 27.1796875 C-31.87831056 21.63922106 -32.18330621 16.50298971 -31.4296875 10.3046875 C-29.39564595 5.20692362 -26.10590283 1.19948747 -21.4296875 -1.6953125 C-14.09946002 -4.65559667 -6.70849158 -4.27471324 0 0 Z " fill="#000000" transform="translate(121.4296875,160.6953125)"/>
<path d="M0 0 C4.52011354 3.19603988 6.78355409 6.68451761 8.1875 12.0078125 C9.1440905 17.72742652 8.51270298 22.80076154 5.625 27.875 C1.68654601 32.24742085 -2.00959285 35.57486866 -8.046875 36.11328125 C-14.81533907 36.27648026 -18.967611 36.06848535 -24.375 31.875 C-28.98222269 27.26777731 -30.52705325 23.55147244 -30.625 17.0625 C-30.54833474 11.27078824 -29.94666797 7.56356197 -25.828125 3.2578125 C-18.24529489 -3.75462773 -9.18359276 -5.19147128 0 0 Z " fill="#000000" transform="translate(325.375,160.125)"/>
</svg>
